<svg xmlns="http://www.w3.org/2000/svg" version="1.1" xmlns:xlink="http://www.w3.org/1999/xlink" width="200" height="200"><svg xmlns="http://www.w3.org/2000/svg" version="1.1" xmlns:xlink="http://www.w3.org/1999/xlink" viewBox="0 0 200 200"><rect width="200" height="200" fill="url('#gradient')"></rect><defs><linearGradient id="SvgjsLinearGradient1006" gradientTransform="rotate(141 0.5 0.5)"><stop offset="0%" stop-color="#623d91"></stop><stop offset="100%" stop-color="#2e3440"></stop></linearGradient></defs><g><g fill="#ffffff" transform="matrix(4.147516520997655,0,0,4.147516520997655,0.5587968952593201,129.48821788453213)" stroke="#651800" stroke-width="0.2"><path d="M5.75 0L1.07 0L1.07-14.22L5.65-14.22Q7.54-14.22 9.04-13.36Q10.55-12.51 11.39-10.95Q12.24-9.39 12.25-7.46L12.25-7.46L12.25-6.81Q12.25-4.85 11.42-3.31Q10.60-1.76 9.10-0.88Q7.60-0.01 5.75 0L5.75 0ZM5.65-11.57L4.50-11.57L4.50-2.64L5.69-2.64Q7.17-2.64 7.96-3.69Q8.75-4.74 8.75-6.81L8.75-6.81L8.75-7.42Q8.75-9.48 7.96-10.53Q7.17-11.57 5.65-11.57L5.65-11.57ZM14.00-14.22L18.51-14.22L21.68-4.33L24.84-14.22L29.36-14.22L29.36 0L25.92 0L25.92-3.32L26.25-10.12L22.81 0L20.55 0L17.10-10.13L17.43-3.32L17.43 0L14.00 0L14.00-14.22ZM31.53-14.22L36.04-14.22L39.21-4.33L42.37-14.22L46.88-14.22L46.88 0L43.45 0L43.45-3.32L43.78-10.12L40.34 0L38.08 0L34.63-10.13L34.96-3.32L34.96 0L31.53 0L31.53-14.22Z"></path></g></g></svg><style>@media (prefers-color-scheme: light) { :root { filter: none; } }
@media (prefers-color-scheme: dark) { :root { filter: none; } }
</style></svg>